# Blender v2.79 (sub 0) OBJ File: ''
# www.blender.org
mtllib nav.mtl
o Navmesh
v -14.303740 2.096014 19.331385
v -14.303740 2.096014 18.731384
v -6.203739 2.096014 19.031384
v -5.903739 2.096014 18.431385
v -5.303739 2.096014 19.031384
v 5.796261 2.096014 19.031384
v 17.196262 2.096014 19.031384
v 17.796261 2.096014 18.431385
v 17.796261 2.096014 10.631384
v 17.796261 2.096014 2.831383
v 17.796261 2.096014 -4.968616
v 17.796261 2.096014 -12.768616
v 17.196262 2.096014 -13.368618
v 18.396263 2.096014 -13.368618
v 18.396263 2.096014 -4.968616
v 18.396263 2.096014 3.131384
v 18.396263 2.096014 11.231384
v 18.396263 2.096014 19.331385
v 9.996262 2.096014 19.331385
v 1.896261 2.096014 19.331385
v -6.203739 2.096014 19.331385
v -1.403739 -1.503986 10.631384
v -0.503738 -1.503986 10.031384
v 0.996262 -2.503986 10.631384
v 0.996262 -2.503986 8.831384
v 2.796261 -2.503986 8.831384
v 2.496262 -2.503986 10.031384
v 3.096262 -2.503986 10.631384
v 4.896261 -2.503986 10.331384
v 4.896261 -2.503986 10.931384
v 5.796261 -2.503986 11.231384
v 4.896261 -2.103986 13.031384
v 3.696262 -2.503986 12.131384
v 2.196262 -2.503986 12.731384
v 2.196262 -2.503986 13.931384
v 3.696262 -2.503986 14.831385
v 3.396261 -1.703986 16.031384
v 5.196262 -1.503986 16.331385
v 5.196262 -0.903986 17.531384
v -4.103739 -0.903986 17.531384
v -3.803739 -1.903986 9.731384
v -2.603739 -2.503986 11.531384
v -1.703738 -1.903986 11.531384
v 7.296261 -1.703986 16.031384
v 6.996262 -2.503986 14.831385
v 8.796261 -2.503986 13.331385
v 8.796261 -2.503986 10.031384
v 7.896261 -2.503986 9.131384
v 7.896261 -1.703986 7.331384
v 4.296261 -1.703986 7.031384
v 4.596262 -1.703986 2.231384
v 6.696262 -1.703986 2.231384
v 6.696262 -1.703986 0.731384
v 5.196262 -1.703986 -3.168617
v 13.296263 -1.703986 -3.168617
v 13.296263 -1.703986 1.631384
v 10.296263 -1.703986 1.631384
v 9.996262 -1.703986 4.031384
v 13.296263 -1.703986 4.331384
v 13.296263 -2.503986 10.931384
v 13.296263 -0.903986 17.531384
v 8.796261 0.496014 12.431384
v 8.796261 0.496014 10.931384
v 14.196262 0.296014 10.931384
v 14.796263 0.296014 10.331384
v 14.796263 0.296014 3.431383
v 14.196262 0.296014 2.831383
v 14.796263 0.296014 2.531384
v 14.796263 0.296014 -3.168617
v 15.696262 0.296014 -3.468616
v 15.696262 0.296014 -4.968616
v 14.796263 0.296014 -5.268618
v 14.796263 0.296014 -8.868616
v 14.196262 0.296014 -9.468616
v 14.796263 0.296014 -9.768618
v 14.796263 0.296014 -11.868618
v 16.296263 0.296014 -11.868618
v 16.296263 0.296014 -4.368616
v 16.296263 0.296014 2.831383
v 16.296263 0.296014 10.331384
v 16.296263 0.296014 17.531384
v 14.796263 0.296014 17.531384
v 14.796263 0.296014 13.031384
v 14.196262 0.296014 12.431384
v -13.103739 0.496014 15.431384
v -13.103739 0.496014 8.231384
v -10.703739 0.496014 8.231384
v -10.403739 0.496014 7.631384
v -9.803740 0.496014 8.231384
v -6.203739 0.496014 8.231384
v -6.203739 0.496014 15.431384
v -1.703738 -0.903986 9.431384
v -3.803739 0.896014 7.331384
v -5.003738 0.896014 2.831383
v -5.003738 0.896014 0.731384
v -3.803739 0.896014 -2.268616
v -3.803739 0.896014 -9.768618
v 0.096261 0.896014 -9.468616
v -0.503738 0.896014 -8.868616
v -0.503738 0.896014 -3.168617
v -1.103739 1.096014 -0.768616
v 0.396261 1.096014 0.131384
v -1.403739 0.896014 0.731384
v -0.203738 0.896014 5.231383
v -8.903739 -1.703986 4.031384
v -7.103739 -1.703986 2.531384
v -5.603739 -1.703986 2.531384
v -5.003738 -1.703986 1.931383
v -4.103739 -1.703986 -1.668617
v -1.703738 -1.703986 -1.068617
v -1.403739 -1.703986 1.631384
v 1.596262 -1.703986 1.631384
v 1.896261 -1.703986 -1.068617
v 3.096262 -1.703986 -1.668617
v 2.496262 -1.703986 7.631384
v 0.996262 -1.703986 5.531384
v -0.803739 -1.703986 5.531384
v -3.803739 -1.703986 6.731383
v -8.903739 -1.703986 6.731383
v -9.203739 -1.703986 3.431383
v -11.303740 -1.703986 3.431383
v -11.603739 -1.703986 6.731383
v -13.103739 -0.903986 6.731383
v -13.103739 -0.903986 -2.568617
v -13.103739 -0.903986 -11.868618
v -6.803739 -1.103986 -11.568617
v -11.003738 -1.303986 -10.968616
v -10.403739 -1.703986 -3.768616
v -6.503738 -1.703986 -4.068617
v -6.203739 -1.703986 -10.068617
v -6.203739 -1.703986 -3.468616
v -7.703739 -1.703986 0.731384
v -7.703739 -1.703986 2.231384
v -3.803739 -1.703986 -9.768618
v -0.503738 -1.703986 -9.768618
v -0.203738 -1.703986 -7.968616
v 3.396261 -1.703986 -7.968616
v 3.996262 -1.703986 -5.268618
v 2.496262 -1.703986 -4.968616
v 1.596262 -1.703986 -1.668617
v -1.403739 -1.703986 -1.668617
v 5.196262 -1.703986 -8.268618
v 4.896261 -1.503986 -10.668617
v -3.803739 -1.103986 -11.268618
v -4.103739 -0.903986 -11.868618
v 4.596262 -0.903986 -11.868618
v 13.296263 -0.903986 -11.868618
v 13.296263 -1.503986 -10.668617
v 9.996262 -1.503986 -10.368616
v 9.996262 -1.703986 -8.268618
v 13.296263 -1.703986 -7.968616
v 13.296263 -1.703986 -5.268618
v 2.796261 -2.303986 14.981384
v -0.403738 -2.303986 12.331384
v -3.353739 -2.103986 14.531384
v -0.403738 -2.303986 12.331384
v 2.796261 -2.303986 14.981384
v -0.833738 -2.303986 14.861384
v -3.353739 -2.103986 14.531384
v -4.043738 -1.703986 15.971384
v 13.296263 -1.503986 7.631384
v 13.296263 -2.303986 9.281384
v 13.296263 -2.303986 14.231384
v 11.808277 -2.303986 14.848200
v 9.966261 -2.303986 14.861384
v 10.146263 -1.103986 2.831383
v -0.303739 0.896014 6.831383
v 0.996262 -1.503986 7.181383
v -10.883739 -1.503986 -9.528616
v -11.753738 -1.503986 -3.168617
v -10.253739 -1.103986 3.431383
v -11.753738 -1.503986 -3.168617
v -11.609710 -1.503986 -1.364986
v -9.833739 -1.503986 2.261385
v 5.046261 -1.103986 -9.468616
v 9.996262 -1.103986 -9.318617
vn 0.0000 1.0000 0.0000
vn 0.0973 0.8392 -0.5351
vn 0.1648 0.9473 -0.2746
vn 0.0767 0.9971 0.0000
vn 0.0839 0.9953 -0.0480
vn 0.4548 0.8471 0.2749
vn 0.2088 0.9265 0.3132
vn 0.0258 0.9103 0.4132
vn -0.1839 0.9656 -0.1839
vn 0.0622 0.9804 -0.1867
vn 0.0021 0.8867 -0.4623
vn 0.1189 0.9318 -0.3430
vn -0.5382 0.8073 -0.2422
vn 0.1925 0.9664 0.1703
vn 0.0695 0.9975 0.0118
vn 0.0063 0.9817 -0.1906
vn 0.0166 0.8640 -0.5032
vn 0.0774 0.9969 0.0132
vn 0.0000 0.8824 -0.4706
vn -0.0248 0.8942 -0.4471
vn 0.4537 0.8912 -0.0054
vn 0.4870 0.8734 -0.0093
vn -0.4258 0.7984 -0.4258
vn 0.0213 0.8942 -0.4471
vn -0.0241 0.9924 0.1203
vn -0.0380 0.9986 0.0380
vn -0.0454 0.8989 0.4358
vn -0.0563 0.9124 0.4055
vn -0.0357 0.9991 -0.0227
vn 0.0055 0.9982 -0.0605
vn -0.1598 0.9087 -0.3855
vn -0.0029 0.8871 -0.4615
vn -0.0508 0.8368 -0.5452
vn -0.0662 0.9946 -0.0794
vn -0.0341 0.9974 -0.0639
vn -0.0251 0.9979 -0.0605
vn -0.0033 0.8873 -0.4611
vn -0.0009 0.9917 -0.1289
vn -0.2253 0.8824 0.4130
vn -0.0756 0.8881 -0.4535
vn 0.0370 0.9993 0.0000
vn 0.2540 0.8890 0.3810
vn -0.0707 0.9905 0.1179
vn 0.0854 0.7971 0.5978
vn 0.0962 0.7934 0.6011
vn -0.1314 0.9857 0.1051
vn -0.0243 0.9957 -0.0890
vn 0.1661 0.9789 -0.1187
vn -0.0414 0.8545 0.5179
vn 0.0000 0.8321 0.5547
vn 0.4061 0.9138 0.0000
vn 0.1648 0.9854 0.0424
vn 0.2481 0.9686 0.0130
vn 0.1335 0.9831 0.1254
vn 0.0110 0.9230 0.3846
vn 0.4702 0.8815 0.0427
vn 0.1538 0.9844 0.0855
vn 0.4927 0.8622 -0.1179
vn -0.4482 0.7843 -0.4290
vn 0.3616 0.9322 0.0158
vn 0.3942 0.9185 -0.0315
vn 0.1416 0.9899 -0.0113
vn 0.0752 0.9961 -0.0451
vn 0.0693 0.9970 -0.0339
vn -0.0973 0.9941 0.0477
vn 0.0000 0.9285 0.3714
vn 0.0406 0.8937 0.4468
vn 0.1924 0.9235 -0.3319
vn 0.0000 0.8944 0.4472
vn 0.0105 0.8954 0.4451
vn 0.0000 0.9487 0.3162
vn -0.1907 0.8581 0.4767
vn -0.1981 0.8510 0.4863
vn 0.1987 0.9159 -0.3489
usemtl None
s off
f 14//1 13//1 12//1
f 21//1 5//1 3//1
f 3//1 5//1 4//1
f 11//1 15//1 12//1
f 12//1 15//1 14//1
f 21//1 3//1 1//1
f 1//1 3//1 2//1
f 16//1 15//1 10//1
f 10//1 15//1 11//1
f 6//1 19//1 7//1
f 7//1 19//1 18//1
f 17//1 16//1 9//1
f 9//1 16//1 10//1
f 6//1 5//1 20//1
f 20//1 5//1 21//1
f 18//1 17//1 8//1
f 8//1 17//1 9//1
f 20//1 19//1 6//1
f 18//1 8//1 7//1
f 33//1 30//1 28//1
f 28//1 30//1 29//1
f 24//1 27//1 25//1
f 25//1 27//1 26//1
f 37//2 36//2 153//2
f 153//3 36//3 35//3
f 35//4 34//4 154//4
f 154//5 34//5 24//5
f 154//6 24//6 23//6
f 154//7 23//7 22//7
f 154//8 22//8 43//8
f 34//1 33//1 24//1
f 24//1 33//1 28//1
f 24//1 28//1 27//1
f 33//9 32//9 30//9
f 30//10 32//10 31//10
f 37//11 158//11 40//11
f 40//12 158//12 155//12
f 155//13 43//13 42//13
f 43//14 155//14 156//14
f 156//15 158//15 35//15
f 35//16 158//16 157//16
f 157//17 158//17 37//17
f 158//18 156//18 155//18
f 40//19 39//19 37//19
f 37//20 39//20 38//20
f 42//21 41//21 159//21
f 159//22 41//22 160//22
f 159//23 160//23 40//23
f 61//19 44//19 39//19
f 39//24 44//24 38//24
f 60//25 162//25 47//25
f 47//26 162//26 48//26
f 48//27 162//27 161//27
f 48//28 161//28 49//28
f 49//29 161//29 58//29
f 58//30 161//30 59//30
f 163//31 164//31 61//31
f 61//32 165//32 44//32
f 44//33 165//33 45//33
f 45//34 165//34 46//34
f 46//35 164//35 60//35
f 60//36 164//36 163//36
f 164//37 165//37 61//37
f 165//38 164//38 46//38
f 58//1 52//1 49//1
f 49//1 52//1 51//1
f 49//1 51//1 50//1
f 58//39 166//39 52//39
f 52//40 166//40 57//40
f 52//1 57//1 53//1
f 54//1 53//1 55//1
f 55//1 53//1 57//1
f 55//1 57//1 56//1
f 47//1 46//1 60//1
f 68//1 67//1 66//1
f 75//1 74//1 73//1
f 77//1 76//1 75//1
f 71//1 78//1 73//1
f 73//1 78//1 75//1
f 75//1 78//1 77//1
f 73//1 72//1 71//1
f 70//1 69//1 68//1
f 65//1 80//1 66//1
f 66//1 80//1 79//1
f 78//1 71//1 70//1
f 80//1 83//1 81//1
f 81//1 83//1 82//1
f 66//1 79//1 68//1
f 68//1 79//1 70//1
f 70//1 79//1 78//1
f 65//1 64//1 80//1
f 80//1 64//1 84//1
f 80//1 84//1 83//1
f 84//41 64//41 62//41
f 62//41 64//41 63//41
f 85//1 89//1 87//1
f 87//1 89//1 88//1
f 87//1 86//1 85//1
f 85//1 91//1 89//1
f 89//1 91//1 90//1
f 92//42 22//42 23//42
f 103//43 102//43 101//43
f 99//1 98//1 97//1
f 103//1 94//1 104//1
f 104//1 94//1 167//1
f 167//1 94//1 93//1
f 167//44 93//44 92//44
f 167//45 92//45 23//45
f 95//1 94//1 96//1
f 96//1 94//1 103//1
f 96//46 103//46 101//46
f 101//47 100//47 96//47
f 96//1 100//1 99//1
f 96//1 99//1 97//1
f 116//48 168//48 115//48
f 115//49 168//49 25//49
f 115//50 25//50 26//50
f 111//1 108//1 107//1
f 107//1 106//1 105//1
f 51//1 114//1 112//1
f 112//1 114//1 113//1
f 105//1 119//1 107//1
f 107//1 119//1 118//1
f 107//1 118//1 117//1
f 107//1 117//1 111//1
f 51//1 112//1 50//1
f 50//1 112//1 116//1
f 50//1 116//1 115//1
f 108//1 111//1 109//1
f 109//1 111//1 110//1
f 117//1 116//1 111//1
f 111//1 116//1 112//1
f 131//1 130//1 129//1
f 120//1 105//1 133//1
f 133//1 105//1 106//1
f 124//51 170//51 125//51
f 125//52 170//52 128//52
f 125//53 128//53 169//53
f 125//54 169//54 127//54
f 127//55 126//55 125//55
f 120//1 133//1 132//1
f 124//51 123//51 121//51
f 121//56 123//56 122//56
f 131//1 129//1 128//1
f 128//1 132//1 131//1
f 132//57 174//57 120//57
f 120//58 174//58 171//58
f 171//59 174//59 121//59
f 121//60 173//60 124//60
f 124//61 173//61 172//61
f 172//62 173//62 128//62
f 128//63 173//63 132//63
f 132//64 173//64 174//64
f 174//65 173//65 121//65
f 139//1 140//1 114//1
f 114//1 140//1 113//1
f 109//1 110//1 141//1
f 136//1 139//1 137//1
f 137//1 139//1 138//1
f 141//1 140//1 139//1
f 136//1 135//1 134//1
f 134//1 109//1 136//1
f 136//1 109//1 141//1
f 136//1 141//1 139//1
f 152//1 151//1 138//1
f 138//1 151//1 150//1
f 138//1 150//1 142//1
f 138//1 142//1 137//1
f 146//66 149//66 147//66
f 147//67 149//67 148//67
f 143//68 175//68 150//68
f 150//69 175//69 142//69
f 143//70 146//70 144//70
f 144//71 146//71 145//71
f 143//72 150//72 146//72
f 146//73 150//73 176//73
f 146//74 176//74 149//74
